<?xml version="1.0" encoding="UTF-8"?>
<svg width="46px" height="47px" viewBox="0 0 46 47" version="1.1" xmlns="http://www.w3.org/2000/svg" xmlns:xlink="http://www.w3.org/1999/xlink">
    <!-- Generator: Sketch 43.2 (39069) - http://www.bohemiancoding.com/sketch -->
    <title>freshworks_logo</title>
    <desc>Created with Sketch.</desc>
    <defs></defs>
    <g id="Page-1" stroke="none" stroke-width="1" fill="none" fill-rule="evenodd">
        <g id="Desktop-HD" transform="translate(-151.000000, -118.000000)" fill-rule="nonzero">
            <g id="freshworks_logo" transform="translate(149.000000, 117.000000)">
                <g id="g10" transform="translate(24.500000, 24.833333) scale(-1, 1) rotate(-180.000000) translate(-24.500000, -24.833333) translate(0.000000, 0.333333)">
                    <g id="g12">
                        <g id="g14-Clipped" transform="translate(-0.000000, 0.000000)">
                            <g id="g14" transform="translate(0.666667, 0.666667)">
                                <g id="g60" transform="translate(1.583733, 7.360266)" fill="#9367AC">
                                    <path d="M0,13.333333 C0.733333315,8.40533312 3.04666659,3.99466657 6.40933317,0.631999984 L14.1639996,8.38799979 C14.1719996,16.2346663 18.2426662,23.8653327 25.526666,28.0719993 L0,13.333333 Z" id="path62"></path>
                                </g>
                                <g id="g64" transform="translate(1.081067, 16.747733)" fill="#9367AC">
                                    <path d="M14.6666663,7.9999998 C10.8026664,7.9959998 6.88533316,8.97199978 3.29733325,11.0426664 L3.29733325,11.0426664 C2.30533328,11.6159997 1.3733333,12.253333 0.502666654,12.945333 C1.23599997,8.01866647 3.54933324,3.60799991 6.91199983,0.245333327 L14.6666663,7.9999998 Z" id="path66"></path>
                                </g>
                                <g id="g68" transform="translate(7.747866, 1.081067)" fill="#AF68AA">
                                    <path d="M7.9999998,14.6666663 L7.9999998,14.6666663 L0.245333327,6.91199983 C3.60799991,3.54933324 8.01866647,1.23599997 12.945333,0.502666654 L27.6839993,26.030666 C23.4773327,18.7453329 15.8479996,14.6746663 7.9999998,14.6666663" id="path70"></path>
                                </g>
                                <g id="g72" transform="translate(6.790533, 0.378933)" fill="#AF67AA">
                                    <path d="M11.9999997,3.9999999 C9.92933309,7.58799981 8.95333311,11.5039997 8.95733311,15.3693329 L1.20266664,7.61333314 C4.56399989,4.25199989 8.97599978,1.93733328 13.9026663,1.2053333 C13.2106663,2.07599995 12.573333,3.00799992 11.9999997,3.9999999 Z" id="path74"></path>
                                </g>
                                <g id="g76" transform="translate(0.651467, 14.892000)" fill="#3479B2">
                                    <path d="M43.9999989,30.6666659 L26.4599993,20.5399995 C19.1746662,16.3333329 10.5319997,16.6239996 3.73066657,20.5413328 C1.79599996,17.1959996 0.681333316,13.3159997 0.681333316,9.1733331 L0.681333316,9.1733331 C0.681333316,8.0279998 0.769333314,6.90266649 0.931999977,5.80133319 C1.80399995,5.10933321 2.7346666,4.47199989 3.72666657,3.89866657 L3.72799991,3.89866657 C7.31466648,1.82799995 11.2319997,0.851999979 15.0959996,0.855999979 L44.4786656,30.2386659 C44.3279989,30.3906659 44.1679989,30.5333326 43.9999989,30.6666659" id="path78"></path>
                                </g>
                                <g id="g80" transform="translate(0.378933, 14.790533)" fill="#3278B3">
                                    <path d="M3.9999999,3.9999999 C7.58799981,1.92933329 11.5039997,0.953333309 15.3693329,0.957333309 C15.3773329,8.80533311 19.4466662,16.4346663 26.7319993,20.6413328 L1.2053333,5.90266652 C2.07599995,5.21066654 3.00799992,4.57333322 3.9999999,3.9999999 Z" id="path82"></path>
                                </g>
                                <g id="g84" transform="translate(0.382667, 19.432800)" fill="#54A2D9">
                                    <path d="M3.9999999,15.9999996 C2.06399995,12.6559997 0.950666643,8.77466645 0.950666643,4.63333322 L0.950666643,4.63333322 C0.950666643,3.48666658 1.03733331,2.36133327 1.2013333,1.2613333 L26.7279993,15.9986663 C19.4426662,11.793333 10.7999997,12.0839997 3.9999999,15.9999996" id="path86"></path>
                                </g>
                                <g id="g88" transform="translate(3.797333, 14.464000)" fill="#2AB67D">
                                    <path d="M41.3333323,30.6666659 C41.1813323,30.8186659 41.0213323,30.9613326 40.8546656,31.0946659 C40.6333323,31.2706659 40.3973323,31.4279992 40.151999,31.5706659 C39.3173324,32.0533325 38.3506657,32.3333325 37.3173324,32.3333325 L20.2679995,32.3333325 C11.8559997,32.3333325 4.51599989,27.7613326 0.585333319,20.9693328 C7.38533315,17.0519996 16.0279996,16.7613329 23.3133328,20.9679995 C16.0279996,16.7613329 11.9586664,9.13199977 11.9506664,1.28399997 C19.7986662,1.29199997 27.4279993,5.3613332 31.6346659,12.6466664 L41.7613323,30.1879992 C41.627999,30.3559992 41.4853323,30.5146659 41.3333323,30.6666659" id="path90"></path>
                                </g>
                                <g id="g92" transform="translate(3.111067, 31.431733)" fill="#2DC5F4">
                                    <path d="M23.9999994,3.9999999 L41.539999,14.1266663 C41.319999,14.3026663 41.083999,14.4599996 40.8386656,14.6026663 L1.27199997,4.00133323 C8.0719998,0.0839999979 16.7146662,-0.206666661 23.9999994,3.9999999" id="path94"></path>
                                </g>
                                <g id="g96" transform="translate(3.781467, 34.797866)" fill="#7ED0DE">
                                    <path d="M37.3333324,11.9999997 L20.2839995,11.9999997 C11.8719997,11.9999997 4.53199989,7.42666648 0.601333318,0.634666651 L40.167999,11.2373331 C39.3333324,11.7199997 38.3666657,11.9999997 37.3333324,11.9999997" id="path98"></path>
                                </g>
                                <g id="g104" transform="translate(15.431733, 0.444400)" fill="#DB3958">
                                    <path d="M19.9999995,26.666666 L30.1266659,44.2066656 C29.9933326,44.3746656 29.8506659,44.5346656 29.6986659,44.6866655 L0.315999992,15.3026663 C0.311999992,11.4386664 1.28799997,7.52133315 3.35866658,3.93466657 L3.35866658,3.93466657 C3.9319999,2.94133326 4.56933322,2.01066662 5.2613332,1.13999997 C6.36266651,0.975999976 7.48799981,0.889333311 8.63333312,0.889333311 C12.7759997,0.889333311 16.6559996,2.00266662 20.0013328,3.93866657 C16.0839996,10.7386664 15.7933329,19.3813328 19.9999995,26.666666" id="path106"></path>
                                </g>
                                <g id="g108" transform="translate(15.747733, 1.081067)" fill="#D23D4F">
                                    <path d="M-1.69406589e-21,14.6666663 L-1.69406589e-21,14.6666663 C-0.0039999999,10.8026664 0.971999976,6.88533316 3.04266659,3.29733325 L3.04266659,3.29733325 C3.61599991,2.30533328 4.25333323,1.3733333 4.94533321,0.502666654 L19.6839995,26.030666 C15.4773329,18.7453329 7.8479998,14.6746663 -1.69406589e-21,14.6666663" id="path110"></path>
                                </g>
                                <g id="g112" transform="translate(19.431733, 0.444400)" fill="#EE5B26">
                                    <path d="M15.9999996,26.666666 L1.2613333,1.13999997 C2.36266661,0.975999976 3.48799991,0.889333311 4.63333322,0.889333311 L4.63333322,0.889333311 C8.77599978,0.889333311 12.6559997,2.00266662 16.0013329,3.93866657 C12.0839997,10.7386664 11.793333,19.3813328 15.9999996,26.666666" id="path114"></path>
                                </g>
                                <g id="g116" transform="translate(15.368000, 3.949200)" fill="#92C957">
                                    <path d="M30.6666659,39.999999 C30.5239992,40.2453323 30.3666659,40.4813323 30.1906659,40.7026656 C30.0573326,40.8706656 29.9146659,41.0293323 29.7626659,41.1813323 C29.6106659,41.3333323 29.4519993,41.475999 29.2839993,41.6093323 L11.7426664,31.4826659 C4.45733322,27.2759993 0.38799999,19.6466662 0.37999999,11.7986664 C8.22799979,11.8066664 15.8573329,15.8759996 20.0639995,23.1613328 C15.8573329,15.8759996 16.1479996,7.23333315 20.0653328,0.433333323 C26.8573327,4.36399989 31.4293325,11.7039997 31.4293325,20.1159995 L31.4293325,37.1653324 C31.4293325,38.1986657 31.1493326,39.1653324 30.6666659,39.999999" id="path118"></path>
                                </g>
                                <g id="g120" transform="translate(15.318133, 14.892000)" fill="#3EB76F">
                                    <path d="M29.3333326,30.6666659 L11.793333,20.5399995 C4.50799989,16.3333329 0.438666656,8.70399978 0.429333323,0.855999979 L0.429333323,0.855999979 L29.8119993,30.2386659 C29.6613326,30.3906659 29.5013326,30.5333326 29.3333326,30.6666659" id="path122"></path>
                                </g>
                                <g id="g124" transform="translate(15.747733, 15.747733)" fill="#92C957">
                                    <path d="M0,0 C7.8479998,0.0079999998 15.4773329,4.07866656 19.6839995,11.3639997 L29.8106659,28.9039993 C29.6773326,29.0719993 29.5346659,29.2319993 29.3826659,29.3826659 L0,0 Z" id="path126"></path>
                                </g>
                                <g id="g128" transform="translate(32.225333, 3.318133)" fill="#FDBA11">
                                    <path d="M13.333333,41.3333323 L3.20666659,23.7933327 C-0.999999975,16.5079996 -0.709333316,7.86533314 3.20799992,1.06399997 L13.809333,40.6306657 C13.6666663,40.8773323 13.509333,41.111999 13.333333,41.3333323" id="path130"></path>
                                </g>
                                <g id="g132" transform="translate(35.432799, 4.382667)" fill="#FAA719">
                                    <path d="M0,0 C6.79199983,3.93066657 11.365333,11.2706664 11.365333,19.6826662 L11.365333,36.7319991 C11.365333,37.7653324 11.0853331,38.731999 10.6013331,39.5666657 L0,0 Z" id="path134"></path>
                                </g>
                            </g>
                        </g>
                    </g>
                </g>
            </g>
        </g>
    </g>
</svg>