<?xml version="1.0" encoding="utf-8"?>
<!-- Generator: Adobe Illustrator 22.0.1, SVG Export Plug-In . SVG Version: 6.00 Build 0)  -->
<svg version="1.1" id="Layer_1" xmlns="http://www.w3.org/2000/svg" xmlns:xlink="http://www.w3.org/1999/xlink" x="0px" y="0px"
	 viewBox="0 0 67.5 67.5" style="enable-background:new 0 0 67.5 67.5;" xml:space="preserve">
<style type="text/css">
	.st0{fill:#00D3A9;}
	.st1{fill:#00B39F;}
</style>
<title>meshery-logo-light</title>
<polygon class="st0" points="34.7,15.9 34.7,32 48.7,23.9 "/>
<polygon class="st0" points="34.7,35.4 34.7,51.6 48.8,43.5 "/>
<polygon class="st1" points="32.7,31.9 32.7,16 18.9,24 "/>
<path class="st1" d="M5.1,51.5c2.7,4.4,6.4,8,10.7,10.8v-17L5.1,51.5z"/>
<polygon class="st1" points="32.7,51.5 32.7,35.5 18.9,43.5 "/>
<polygon class="st0" points="17.8,61.3 31.8,53.3 17.8,45.2 "/>
<polygon class="st1" points="49.8,61.4 49.8,45.3 35.8,53.3 "/>
<path class="st1" d="M63.5,49.7c2.4-4.5,3.7-9.4,4-14.5l-14.6,8.3L63.5,49.7z"/>
<polygon class="st0" points="51.8,41.8 65.9,33.8 51.8,25.7 "/>
<polygon class="st1" points="49.8,22.2 49.8,6.3 35.9,14.2 "/>
<polygon class="st1" points="49.8,41.8 49.8,25.6 35.8,33.7 "/>
<polygon class="st1" points="33.7,67.5 33.7,67.5 33.7,67.5 "/>
<polygon class="st0" points="17.8,25.6 17.8,41.9 31.8,33.7 "/>
<path class="st1" d="M32.7,0c-5.2,0.1-10.2,1.5-14.8,3.9l14.8,8.5V0z"/>
<polygon class="st0" points="17.8,6.2 17.8,22.3 31.8,14.2 "/>
<path class="st1" d="M15.8,5.2c-4.3,2.7-8,6.4-10.7,10.8l10.7,6.2V5.2z"/>
<path class="st0" d="M49.7,4c-4.6-2.5-9.7-3.9-15-4v12.6L49.7,4z"/>
<path class="st0" d="M0,34.9c0.2,5.2,1.6,10.3,4,14.9l10.8-6.3L0,34.9z"/>
<path class="st0" d="M4,17.7c-2.5,4.6-3.9,9.6-4,14.8L14.9,24L4,17.7z"/>
<path class="st1" d="M17.9,63.6c4.6,2.4,9.7,3.8,14.8,3.9V55.1L17.9,63.6z"/>
<path class="st0" d="M62.5,16c-2.7-4.3-6.3-8-10.6-10.8v16.9L62.5,16z"/>
<path class="st0" d="M51.8,62.3c4.3-2.8,8-6.5,10.7-10.8l-10.7-6.2V62.3z"/>
<path class="st1" d="M67.5,32.4c-0.2-5.1-1.6-10.2-4-14.7l-10.8,6.2L67.5,32.4z"/>
<path class="st0" d="M34.7,67.5c5.2-0.1,10.2-1.5,14.8-3.9L34.7,55V67.5z"/>
<polygon class="st1" points="15.8,41.7 15.8,25.8 1.9,33.7 "/>
</svg>
