<?xml version="1.0" encoding="utf-8"?>
<!-- Generator: Adobe Illustrator 21.1.0, SVG Export Plug-In . SVG Version: 6.00 Build 0)  -->
<svg version="1.1" id="Layer_1" xmlns="http://www.w3.org/2000/svg" xmlns:xlink="http://www.w3.org/1999/xlink" x="0px" y="0px"
	 viewBox="0 0 100 125" style="enable-background:new 0 0 100 125;" xml:space="preserve">
<style type="text/css">
	.st0{fill:#9F24BC;}
</style>
<path class="st0" d="M82,61v-4c0-0.6-0.4-1-1-1h-1v-5c0-4.4-3.6-8-8-8c-13.2,0-24-10.8-24-24c0-0.6-0.4-1-1-1H24c-0.6,0-1,0.4-1,1
	v17.2c0,2.4-0.5,4.7-1.4,6.9c-1,2.4-1.6,5-1.6,7.7V56h-1c-0.6,0-1,0.4-1,1v4c0,0.6,0.4,1,1,1h1v1c0,0.3,0.1,0.5,0.3,0.7l3.7,3.7
	c-1.2,1.5-2,3.5-2,5.6c0,5,4,9,9,9s9-4,9-9c0-2.1-0.7-4.1-2-5.6l1.4-1.4h17.2l1.4,1.4c-1.2,1.5-2,3.5-2,5.6c0,5,4,9,9,9s9-4,9-9
	c0-0.2,0-0.4,0-0.6l0.3,0.3c0.4,0.4,1,0.4,1.4,0l6-6c0.4-0.4,0.5-1.1-0.1-1.5L77.8,62H81C81.6,62,82,61.6,82,61z M51.7,44l4.4-4.4
	c2.6,2,5.5,3.5,8.7,4.4H51.7z M55.3,38.9l-5,5c-5.1-0.1-9.2-4.2-9.3-9.3l6.6-6.6C49.2,32.3,51.9,36.1,55.3,38.9z M47.3,27L41,33.3
	V22h5.2C46.4,23.7,46.7,25.4,47.3,27z M46,20c0,0.3,0,0.7,0.1,1H25v-1H46z M22,50.8c0-2.4,0.5-4.7,1.4-6.9c0.1-0.3,0.2-0.6,0.3-0.9
	h1.8c5.2,0,9.5,4.3,9.5,9.5V56H22V50.8z M31,80c-3.9,0-7-3.1-7-7s3.1-7,7-7s7,3.1,7,7S34.9,80,31,80z M65,80c-3.9,0-7-3.1-7-7
	s3.1-7,7-7s7,3.1,7,7S68.9,80,65,80z M65,64c-2.1,0-4.1,0.7-5.6,2l-1.7-1.7C57.5,64.1,57.3,64,57,64H39c-0.3,0-0.5,0.1-0.7,0.3
	L36.6,66c-1.5-1.2-3.5-2-5.6-2s-4.1,0.7-5.6,2L22,62.6V62h42.6l1.9,2.1C66,64.1,65.5,64,65,64z M67.3,62h7l-3.7,3.7L67.3,62z M80,60
	H20v-2h60V60z M31,69c-2.2,0-4,1.8-4,4s1.8,4,4,4s4-1.8,4-4S33.2,69,31,69z M65,69c-2.2,0-4,1.8-4,4s1.8,4,4,4c2.2,0,4-1.8,4-4
	S67.2,69,65,69z"/>
</svg>
