<?xml version="1.0" encoding="UTF-8" standalone="no"?>
<svg
   xmlns:dc="http://purl.org/dc/elements/1.1/"
   xmlns:cc="http://creativecommons.org/ns#"
   xmlns:rdf="http://www.w3.org/1999/02/22-rdf-syntax-ns#"
   xmlns:svg="http://www.w3.org/2000/svg"
   xmlns="http://www.w3.org/2000/svg"
   viewBox="0 0 125 125"
   height="125"
   width="125"
   id="svg4702"
   version="1.1">
  <metadata
     id="metadata4708">
    <rdf:RDF>
      <cc:Work
         rdf:about="">
        <dc:format>image/svg+xml</dc:format>
        <dc:type
           rdf:resource="http://purl.org/dc/dcmitype/StillImage" />
        <dc:title></dc:title>
      </cc:Work>
    </rdf:RDF>
  </metadata>
  <defs
     id="defs4706" />
  <g
     id="g4712">
    <path
       id="path4718"
       d="M 54.163913,120.93093 C 45.990506,119.49225 34.967298,115.50412 28.197501,111.53645 15.58248,104.14299 7.5707367,93.268151 4.9606762,79.995667 2.867998,69.354136 6.1933668,47.71568 11.335234,38.515879 l 2.341832,-4.189993 -2.302573,-2.676901 C 8.3039124,28.079223 6.5880627,22.009351 7.4104036,17.625898 8.8900718,9.738588 18.34251,3.224438 26.526897,4.4517626 31.920876,5.2606396 39.53338,11.599008 40.523151,16.105407 l 0.673868,3.0681 6.151491,-0.699202 c 3.383319,-0.384561 6.319776,-0.854386 6.525458,-1.044055 0.205683,-0.18967 -0.57828,-1.958795 -1.74214,-3.93139 l -2.116108,-3.586537 3.49214,0.655129 c 3.858244,0.723811 3.910071,0.661989 2.516891,-3.0023523 -1.172936,-3.0850553 -0.54421,-3.179188 3.749419,-0.5613616 4.16638,2.5402433 4.221916,2.5303848 4.245983,-0.7537381 0.01943,-2.6511199 0.208199,-2.5512169 5.25,2.7784479 C 72.146569,12.069094 74.95,15.360902 75.5,16.343576 c 0.605286,1.081454 2.63598,2.004728 5.144727,2.339101 3.985501,0.531199 4.170874,0.433373 4.825358,-2.546474 C 86.466794,11.598217 94.058194,5.2637783 99.473103,4.4517626 107.65749,3.224438 117.10993,9.738588 118.5896,17.625898 c 0.82234,4.383453 -0.89351,10.453325 -3.96409,14.023087 l -2.30258,2.676901 2.34184,4.189993 c 6.5653,11.746612 8.94204,37.351282 4.51027,48.589403 -3.23208,8.195954 -7.62329,14.294978 -13.84684,19.232128 -13.995977,11.10301 -35.747564,17.30719 -51.164287,14.59352 z"
       style="fill:#ddaa7c" />
    <path
       id="path4716"
       d="M 58,121.27959 C 39.120091,119.12832 20.239365,109.10069 12.089658,96.896406 6.1579754,88.013641 4.610378,82.342672 4.741828,69.971239 4.8715023,57.766922 6.8165765,48.273029 10.854774,40.133993 l 2.85997,-5.764304 -2.321412,-2.698803 C 10.116555,30.186545 8.5345078,27.178365 7.8776719,24.986042 4.4701896,13.61288 16.318557,1.854514 28.01313,5.0035355 33.088312,6.37014 38.553499,11.123227 40.160935,15.568513 c 1.328208,3.673095 1.785987,3.811697 9.22273,2.792378 4.16407,-0.570749 4.59419,-0.864891 4.021291,-2.75 -0.352835,-1.16099 -1.31503,-2.878495 -2.138212,-3.816678 -1.384762,-1.578217 -1.226343,-1.661916 2.11828,-1.119158 3.982131,0.646211 4.041311,0.576489 2.639727,-3.1099553 C 54.851815,4.4800444 55.480541,4.3859117 59.77417,7.0037381 63.822287,9.4718761 64,9.4717189 64,7 64,5.9 64.392688,5 64.87264,5 65.669386,5 70.144306,9.714237 75.674332,16.379362 77.23441,18.259663 78.802049,19 81.223444,19 c 2.93632,0 3.535992,-0.445827 4.615621,-3.431487 1.607436,-4.445286 7.072623,-9.198373 12.147805,-10.5649775 8.02633,-2.1612658 16.4577,2.3567631 19.56067,10.4817655 2.0978,5.493016 1.39839,9.912846 -2.39689,15.146812 l -2.80235,3.864642 2.82845,5.700771 c 4.00744,8.077046 5.95205,17.597546 6.08142,29.773713 0.13145,12.371433 -1.41615,18.042402 -7.34783,26.925167 C 105.4049,109.6334 86.167415,119.5108 66.5,121.23903 c -2.75,0.24165 -6.575,0.2599 -8.5,0.0406 z m 16.608886,-4.75608 c 9.027732,-2.68095 13.29739,-9.63909 14.140135,-23.043781 C 89.177753,86.660316 88.915928,84.675332 87.00035,80.22245 83.017546,70.964175 73.975583,65.060923 63.717881,65.021962 50.404158,64.971393 39.694793,73.784381 37.568418,86.540971 c -1.383758,8.301466 2.374789,22.435519 7.075172,26.606259 5.124979,4.54748 20.273787,6.25435 29.965296,3.37628 z M 54,111.01905 c 0,-0.53952 1.2375,-1.30455 2.75,-1.70007 C 62.336928,107.85801 72,108.93525 72,111.01905 72,111.58765 68.216801,112 63,112 c -5.216801,0 -9,-0.41235 -9,-0.98095 z m 4.090122,-10.6823 C 45.199677,95.893728 41.011759,87.741152 49.320869,83.265735 c 4.098102,-2.207303 21.540967,-2.456802 26.467348,-0.378585 8.421755,3.552759 6.507497,10.981234 -4.093399,15.884857 -6.366249,2.944813 -8.791451,3.223753 -13.604696,1.564743 z M 20.827578,27.707755 c 0.589858,-0.710734 3.794958,-2.593475 7.122445,-4.183868 6.996274,-3.343913 7.582833,-5.144878 3.1269,-9.60081 -8.603375,-8.6033754 -22.4965463,2.917271 -15.004343,12.442064 2.329571,2.96157 3.206004,3.209038 4.754998,1.342614 z M 109.92742,26.365141 C 114.93337,20.001105 110.28938,11 102,11 c -3.25776,0 -4.784425,0.630579 -7.076923,2.923077 -4.455933,4.455932 -3.869374,6.256897 3.1269,9.60081 3.327483,1.590393 6.532583,3.473134 7.122443,4.183868 1.549,1.866424 2.42543,1.618956 4.755,-1.342614 z"
       style="fill:#937050" />
    <path
       id="path4714"
       d="m 54,111.06739 c 0,-2.67523 14.271562,-3.2244 16.847659,-0.6483 C 72.288876,111.8603 71.61436,112 63.214286,112 58.146429,112 54,111.58032 54,111.06739 Z M 54.5,98.667171 C 45.368218,94.236551 42.63578,89.36422 46.894513,85.105487 48.978218,83.021782 56.909503,81 63,81 c 6.090497,0 14.021782,2.021782 16.105487,4.105487 2.695554,2.695554 2.362796,6.379358 -0.844921,9.353721 C 71.359945,100.85783 62.316158,102.45947 54.5,98.667171 Z M 28.043197,68.727261 C 26.691956,68.043471 25.321953,66.362605 24.998746,64.992003 24.481749,62.799609 23.636658,62.379772 17.969687,61.5 c -4.740127,-0.735883 7.400789,-1 45.96801,-1 29.911447,0 50.295873,0.345782 47.485863,0.805505 -8.59293,1.405822 -9.05766,1.596007 -10.23983,4.190596 -2.185207,4.796008 -9.652382,5.528292 -12.655272,1.241066 -1.361201,-1.943386 -2.485233,-2.03884 -25.149869,-2.135737 L 39.653604,64.5 36.903725,67.25 c -3.015608,3.015741 -5.125272,3.367472 -8.860528,1.477261 z"
       style="fill:#3e4346" />
  </g>
</svg>
